<?xml version="1.0" encoding="UTF-8" standalone="no"?>
<!-- Created with Inkscape (http://www.inkscape.org/) -->

<svg
   xmlns:dc="http://purl.org/dc/elements/1.1/"
   xmlns:cc="http://creativecommons.org/ns#"
   xmlns:rdf="http://www.w3.org/1999/02/22-rdf-syntax-ns#"
   xmlns:svg="http://www.w3.org/2000/svg"
   xmlns="http://www.w3.org/2000/svg"
   xmlns:sodipodi="http://sodipodi.sourceforge.net/DTD/sodipodi-0.dtd"
   xmlns:inkscape="http://www.inkscape.org/namespaces/inkscape"
   width="210mm"
   height="297mm"
   viewBox="0 0 744.09448819 1052.3622047"
   id="svg2"
   version="1.1"
   inkscape:version="0.91 r13725"
   sodipodi:docname="logo.svg">
  <defs
     id="defs4" />
  <sodipodi:namedview
     id="base"
     pagecolor="#ffffff"
     bordercolor="#666666"
     borderopacity="1.0"
     inkscape:pageopacity="0.0"
     inkscape:pageshadow="2"
     inkscape:zoom="0.35"
     inkscape:cx="-279.28571"
     inkscape:cy="520"
     inkscape:document-units="px"
     inkscape:current-layer="layer2"
     showgrid="false"
     inkscape:window-width="1440"
     inkscape:window-height="837"
     inkscape:window-x="-8"
     inkscape:window-y="-8"
     inkscape:window-maximized="1" />
  <metadata
     id="metadata7">
    <rdf:RDF>
      <cc:Work
         rdf:about="">
        <dc:format>image/svg+xml</dc:format>
        <dc:type
           rdf:resource="http://purl.org/dc/dcmitype/StillImage" />
        <dc:title />
      </cc:Work>
    </rdf:RDF>
  </metadata>
  <g
     inkscape:label="Capa 1"
     inkscape:groupmode="layer"
     id="layer1"
     style="display:inline">
    <g
       id="g3383"
       transform="matrix(0.39355312,0,0,0.39355312,11.773727,-0.004866)">
      <g
         id="g3385">
        <g
           id="g3387">
          <path
             id="path3389"
             d="m 746.2,879.1 243.8,0 -0.1,-20.4 -245.3,0 0,-23.2 245.3,0 0,-22.5 -245.3,0 0,-27.4 245.4,7.8 0,-21.4 -207.6,-25.9 c 0,0 -7.8,-0.6 -10.8,-0.6 -32,0 -60.6,14.8 -79.2,38 C 606.1,860 518,807.8 497.1,807.8 474,808 117.5,808 117.5,808 l 0,0.1 c -0.3,0 -0.5,-0.1 -0.8,-0.1 -21.8,0 -39.5,17.7 -39.5,39.6 0,21.8 17.7,39.5 39.5,39.6 0.4,0 0.6,-0.1 0.8,-0.1 l 0,0.1 c 0,0 352,0 378.9,0 24.3,-0.1 125.5,-44.2 200.8,29.6 0.1,0.1 0.3,0.2 0.4,0.3 17,18 40.5,29.9 66.9,31.7 1.8,0.1 6.5,0.1 6.5,0.1 l 219,-25.4 0,-23.3 -243.9,7 0.1,-28.1 z"
             inkscape:connector-curvature="0" />
          <path
             id="path3391"
             d="m 166.2,475.1 0,221.8 c 0,18.1 14.7,32.7 32.8,32.7 l 433.1,0 c 18.1,0 32.7,-14.6 32.7,-32.7 l 0,-238.6 c 39.5,-19.8 72.8,-47.1 92.6,-84.5 40.8,-76.8 44,-151.3 9,-209.6 -35,-58.1 -103.2,-91.4 -187.2,-91.4 -60.1,0 -114,26.4 -158,59.8 C 381.9,89.1 306,49.3 224.8,51.4 172.4,52.8 98,72.2 41.4,157.1 12.3,200.8 3.3,247 14.8,294.4 c 21.8,89.5 113,156.2 151.4,180.7 z M 96,193.4 c 32.9,-49.4 76.8,-75.1 130.5,-76.5 58.5,-1.4 117.5,27.7 145.7,59 -44.6,45.2 -71.6,88.9 -73.9,92.7 -9.4,15.4 -4.5,35.5 11,44.9 15.4,9.4 35.6,4.5 45,-11 1,-1.6 101.6,-164.2 225,-164.2 60.5,0 108.2,21.7 131,59.6 22.7,37.8 18.9,89.3 -10.7,145 -54.4,102.2 -285.9,106.3 -370.6,99.3 -18,-1.6 -33.9,11.9 -35.3,29.9 -1.5,18 11.9,33.9 29.9,35.4 3.6,0.3 28.4,2.2 64.5,2.2 55.1,0 136.9,-4.6 211.2,-26.3 l 0,180.7 -367.6,0 0,-207.4 c 0,-11.9 -6.4,-22.9 -16.8,-28.7 C 213.8,427.3 98.9,362.5 78.6,278.7 71.5,249.5 77.2,221.6 96,193.4 Z"
             inkscape:connector-curvature="0" />
        </g>
      </g>
      <g
         id="g3393" />
      <g
         id="g3395" />
      <g
         id="g3397" />
      <g
         id="g3399" />
      <g
         id="g3401" />
      <g
         id="g3403" />
      <g
         id="g3405" />
      <g
         id="g3407" />
      <g
         id="g3409" />
      <g
         id="g3411" />
      <g
         id="g3413" />
      <g
         id="g3415" />
      <g
         id="g3417" />
      <g
         id="g3419" />
      <g
         id="g3421" />
    </g>
  </g>
  <g
     inkscape:groupmode="layer"
     id="layer2"
     inkscape:label="Capa 2">
    <text
       xml:space="preserve"
       style="font-style:normal;font-variant:normal;font-weight:normal;font-stretch:normal;font-size:243.46240234px;line-height:125%;font-family:'Showcard Gothic';-inkscape-font-specification:'Showcard Gothic';letter-spacing:0px;word-spacing:0px;display:inline;fill:#000000;fill-opacity:1;stroke:none;stroke-width:1px;stroke-linecap:butt;stroke-linejoin:miter;stroke-opacity:1"
       x="325.98438"
       y="266.82343"
       id="text3360"
       sodipodi:linespacing="125%"
       transform="matrix(0.90198599,-0.04040988,0.04956981,1.1064439,0,0)"><tspan
         sodipodi:role="line"
         id="tspan3362"
         x="325.98438"
         y="266.82343">AFR</tspan></text>
    <path
       style="fill:#d40000"
       d="m 308.35306,271.64792 c 6.40629,-36.90276 16.10731,-105.69942 20.28222,-143.83529 2.73663,-24.99773 6.38107,-46.395023 8.09877,-47.549532 1.7177,-1.154508 15.57217,-2.118794 30.7877,-2.142857 23.89294,-0.03778 27.86945,0.637926 29.1671,4.956249 0.82638,2.75 5.98465,25.57143 11.46284,50.71429 5.47819,25.14285 15.07021,66.92563 21.31561,92.85061 6.2454,25.92499 11.13805,47.28635 10.87256,47.46969 -0.26549,0.18335 -12.93994,1.04284 -28.16543,1.90999 l -27.6827,1.57663 -1.83002,-8.33204 c -1.00652,-4.58261 -2.78216,-8.33203 -3.94587,-8.33203 -1.16372,0 -7.32965,4.46283 -13.70209,9.91739 l -11.58623,9.91739 -4.87864,-12.77453 c -5.24509,-13.73407 -10.0961,-16.76422 -10.15932,-6.34596 -0.10019,16.50976 -2.62869,19.28571 -17.56654,19.28571 l -14.08195,0 1.61199,-9.28571 z M 362.313,240.69698 c 9.9619,-2.76611 10.8783,-3.80684 9.48523,-10.77221 -2.93772,-14.68861 -13.98977,-40.94171 -16.22599,-38.54331 -2.38954,2.56287 -11.42938,40.50639 -11.42938,47.97333 0,5.22767 3.29921,5.47138 18.17014,1.34219 z"
       id="path3471"
       inkscape:connector-curvature="0" />
    <path
       style="fill:#d40000"
       d="M 454.55288,253.23528 C 444.73369,130.49434 441.01036,87.14607 439.83818,81.921886 c -1.32997,-5.92738 -0.24753,-6.217902 29.319,-7.869067 16.88498,-0.942954 41.30711,-2.359455 54.27139,-3.147779 L 547,69.471722 l 0,40.016668 0,40.01667 -17.14286,0 -17.14285,0 0,22.58621 0,22.5862 16.83346,-1.5264 16.83346,-1.52641 -1.3445,13.9402 c -2.02476,20.99352 -2.10097,21.08306 -17.94704,21.08306 l -14.37538,0 0,22.85714 0,22.85714 -24.05204,0 c -13.22862,0 -25.91351,0.71432 -28.18865,1.58737 -3.30836,1.26954 -4.49383,-2.87793 -5.92072,-20.71429 z"
       id="path3473"
       inkscape:connector-curvature="0" />
    <path
       style="fill:#d40000"
       d="m 660.62884,268.85326 c -2.37022,-3.61741 -9.2992,-16.20061 -15.39774,-27.96266 l -11.08824,-21.38554 -0.82364,23.18784 -0.82364,23.18784 -27.74779,1.49236 c -15.26128,0.82079 -28.02346,1.25346 -28.36038,0.96147 -0.33693,-0.29199 -3.86636,-41.61236 -7.84319,-91.82305 -3.97683,-50.2107 -7.8199,-94.68944 -8.54016,-98.841655 -1.62321,-9.357622 1.84315,-10.334014 45.62909,-12.852626 38.61187,-2.220995 58.62525,2.501706 75.60375,17.840766 15.27803,13.802783 21.51167,31.245025 21.33752,59.704195 -0.15769,25.77033 -4.21305,36.30313 -20.5424,53.35392 l -10.05265,10.49678 6.72419,10.93179 c 3.6983,6.01249 11.51999,16.15557 17.38153,22.54017 l 10.65734,11.60837 -19.15693,11.24877 c -10.53631,6.18683 -19.94223,11.61769 -20.90205,12.06858 -0.95982,0.45089 -3.68439,-2.1399 -6.05461,-5.75732 z M 652,185.82149 c 14.26617,-13.05753 4.63711,-39.17357 -14.44341,-39.17357 -7.28146,0 -8.14259,0.83332 -6.64312,6.42857 0.94753,3.53571 1.74034,14.55093 1.7618,24.47825 0.0376,17.38387 0.27614,17.97777 6.46759,16.10019 3.53571,-1.07223 9.32143,-4.59727 12.85714,-7.83344 z"
       id="path3475"
       inkscape:connector-curvature="0" />
    <path
       style="fill:#d40000"
       d="m 82.918369,282.15812 c -3.7124,-3.7124 -4.489797,-12.51048 -4.489797,-50.81255 l 0,-46.32275 -7.857143,-4.69386 c -13.7712,-8.2269 -37.601134,-34.193 -44.992686,-49.02591 C 10.872473,101.79141 18.809511,67.671319 45.917417,43.870262 63.603286,28.341864 79.680983,22.438955 104.14286,22.492858 c 18.2408,0.04019 24.1913,1.401447 40,9.15052 10.21428,5.006816 21.81414,11.749074 25.77745,14.982794 l 7.20602,5.87949 19.93684,-10.16947 c 24.87694,-12.689341 42.64072,-15.014934 67.17262,-8.79408 24.1784,6.131212 39.33852,17.273044 49.46818,36.35633 7.14637,13.463043 7.97797,17.57852 6.85786,33.938368 -2.08394,30.43775 -18.282,58.90095 -39.9904,70.27111 l -7.85714,4.11531 0,49.72255 c 0,41.39279 -0.75216,50.4747 -4.4898,54.21234 -3.88763,3.88763 -16.31416,4.4898 -92.65306,4.4898 -76.338901,0 -88.765433,-0.60217 -92.653061,-4.4898 z M 249.22822,225.93363 c 0.43981,-20.03571 -0.20353,-36.42857 -1.42964,-36.42857 -1.22611,0 -11.22881,1.90625 -22.22822,4.2361 -19.74259,4.18181 -82.41608,5.96941 -91.19383,2.60108 -5.32637,-2.04392 -5.98921,-12.79593 -1.09082,-17.69432 2.23032,-2.23032 13.96324,-3.43612 33.57143,-3.45016 68.61587,-0.0491 110.49398,-15.32675 123.67154,-45.11682 11.90663,-26.91691 9.28875,-48.032984 -7.81689,-63.051947 -11.18888,-9.823968 -36.45202,-16.235874 -52.27459,-13.267543 -24.48181,4.592815 -52.93587,26.208118 -75.06691,57.02503 -9.41735,13.11344 -15.78562,15.87468 -22.08458,9.57572 -6.25539,-6.25539 -3.57766,-14.18829 11.08876,-32.850961 13.67378,-17.399566 14.243,-18.776069 9.79628,-23.689649 C 145.59413,54.344545 121.11076,45.717833 102.58308,45.644687 79.964849,45.555392 63.281232,54.470185 50.571429,73.436805 39.978565,89.244353 38.211852,106.70178 45.73306,121.2462 c 6.453889,12.48044 23.274609,30.27246 38.24638,40.4549 7.161309,4.87047 13.965157,10.22597 15.119666,11.90111 1.154504,1.67514 2.118794,22.67456 2.142854,46.66537 l 0.0437,43.61967 73.57143,-0.76253 73.57143,-0.76252 0.79965,-36.42857 z"
       id="path3477"
       inkscape:connector-curvature="0" />
    <path
       style="fill:#000080"
       d="m 299.85604,368.40245 c -4.7149,-2.05485 -10.50061,-6.06542 -12.85715,-8.91239 -2.35653,-2.84697 -9.08282,-7.32754 -14.9473,-9.95683 -9.52744,-4.27154 -21.7669,-4.63854 -114.95653,-3.447 -111.464523,1.42521 -112.952203,1.2608 -112.952203,-12.48329 0,-14.34386 6.559355,-15.52645 86.119253,-15.52645 57.82616,0 77.19235,0.96663 91.18484,4.55134 23.29442,5.96775 38.76427,3.52315 56.18894,-8.87919 28.99644,-20.63876 26.50992,-20.18381 77.88188,-14.24978 25.17237,2.90769 45.76794,6.45697 45.76794,7.88728 0,1.49814 -20.59148,2.19568 -48.57422,1.64546 l -48.57422,-0.95511 0.003,6.42857 c 0.003,6.41446 0.10945,6.42857 48.57423,6.42857 30.4762,0 48.57142,1.06443 48.57142,2.85715 0,1.79271 -18.09522,2.85714 -48.57142,2.85714 -46.66667,0 -48.57143,0.22408 -48.57143,5.71428 0,5.4902 1.90476,5.71429 48.57143,5.71429 30.4762,0 48.57142,1.06443 48.57142,2.85714 0,1.79272 -18.09522,2.85715 -48.57142,2.85715 l -48.57143,0 0,7.5796 0,7.5796 48.84874,-1.98297 c 39.3118,-1.59583 48.61094,-1.26273 47.63071,1.70611 -0.81017,2.4538 -14.53611,5.28224 -40.9916,8.44694 -49.00582,5.86224 -49.25388,5.86757 -59.77467,1.28239 z"
       id="path3479"
       inkscape:connector-curvature="0" />
    <path
       style="fill:#000080"
       d="M 101.28571,284.20894 82.714286,282.3622 80.783209,269.50506 c -1.062092,-7.07143 -2.026377,-28.97556 -2.142857,-48.67584 l -0.21178,-35.8187 -13.828703,-10.32409 C 44.745292,159.86361 25.294647,132.82059 21.142187,114.26544 16.19239,92.147419 22.853008,70.836585 40.66853,51.790348 58.516437,32.709493 72.301263,26.05149 97.345606,24.415598 121.59394,22.831702 138.55102,27.652899 161.20403,42.571674 l 15.41644,10.152931 20.18976,-9.466915 c 18.22066,-8.543605 22.69768,-9.461567 45.90406,-9.412093 22.36964,0.04769 27.64228,1.064249 40.53711,7.815495 24.26049,12.701876 35.91654,31.651384 35.52494,57.753733 -0.45137,30.088915 -15.65557,60.728995 -35.41529,71.370315 l -9.90064,5.33184 -1.3406,51.09015 c -0.82562,31.46437 -2.5438,52.29335 -4.47279,54.22234 -3.58412,3.58412 -136.01845,5.79676 -166.36131,2.77947 z m 148.57143,-57.8853 0,-37.46715 -9.28571,1.61123 c -21.88268,3.79702 -84.48292,7.90668 -95.43069,6.26496 -11.85915,-1.77839 -16.46978,-6.52625 -13.6,-14.00479 1.83708,-4.78736 20.03746,-7.49217 50.85803,-7.55815 38.46489,-0.0823 79.17465,-11.368 95.65805,-26.51852 16.07515,-14.77528 25.26761,-49.992392 17.16551,-65.762561 -10.25086,-19.952574 -34.83331,-32.265457 -59.6556,-29.880351 -24.73625,2.37684 -52.4655,20.901288 -75.85886,50.677292 -14.9428,19.01979 -19.28609,21.69022 -25.37488,15.60144 -5.57518,-5.57519 -2.5025,-13.64376 13.03068,-34.217301 l 11.88937,-15.747351 -6.5369,-6.958206 c -11.75,-12.5073 -45.31725,-20.60988 -65.411691,-15.789299 -38.235275,9.172502 -58.67356,53.28053 -37.897643,81.787217 8.342808,11.44718 27.237397,29.67706 41.191183,39.74208 7.876031,5.68106 7.8855,5.73038 9.733031,50.6866 l 1.84932,45 73.8384,0 73.8384,0 0,-37.46714 z"
       id="path3481"
       inkscape:connector-curvature="0" />
    <path
       style="fill:#000080"
       d="m 457.16052,265.93363 c -0.7573,-3.53571 -4.65729,-46.84135 -8.66663,-96.23475 -5.37796,-66.25416 -6.43728,-90.333019 -4.03928,-91.815066 1.78775,-1.104886 22.0561,-2.860355 45.04078,-3.901041 22.98468,-1.040687 45.32604,-2.576064 49.64747,-3.411949 L 547,69.051032 l 0,40.227018 0,40.22701 -17.14286,0 -17.14285,0 0,23.25052 0,23.25052 16.08437,-1.8904 16.08438,-1.89041 -1.40852,14.65872 c -1.58969,16.54422 -4.75462,19.65772 -20.04595,19.72016 l -10.71428,0.0437 0,22.85714 0,22.85714 -27.08843,0 c -25.77896,0 -27.15498,-0.31076 -28.46534,-6.42857 z"
       id="path3483"
       inkscape:connector-curvature="0" />
  </g>
</svg>
